# xmcd
#
# Track frame offsets:
# 150
# 12340
# 30660
# 41869
# 58995
# 71056
# 85302
# 97733
# 112491
# 126372
# 138466
# 152654
# 170134
# 184770
#
# Disc length: 2682 seconds
#
#
# Revision: 0
# Processed by: cddbd v1.5.1PL0 Copyright (c) Steve Scherf et al.
# Submitted via: FreeRIP 2.90 
#
DISCID=cf0a780e
DTITLE=Myrick, Weldon - Texas to Tennessee
DYEAR=2001
DGENRE=Country
TTITLE0=Once a Day
TTITLE1=Legend in My Time
TTITLE2=Curtain in the Window
TTITLE3=I'm Not Lisa
TTITLE4=Oh, Lonesome Me
TTITLE5=House is Not a Home
TTITLE6=It's All Your Fault
TTITLE7=Letters Have No Arms
TTITLE8=I Love You So Much it Hurts
TTITLE9=Invitation to the Blues
TTITLE10=Right or Wrong
TTITLE11=Take the 'A' Train
TTITLE12=All the Things You Are
TTITLE13=Gospel Medley ('What a Friend,' 'Amazing Grace')
EXTD=
EXTT0=
EXTT1=
EXTT2=
EXTT3=
EXTT4=
EXTT5=
EXTT6=
EXTT7=
EXTT8=
EXTT9=
EXTT10=
EXTT11=
EXTT12=
EXTT13=
PLAYORDER=
